<svg xmlns="http://www.w3.org/2000/svg" xmlns:xlink="http://www.w3.org/1999/xlink" width="2650" zoomAndPan="magnify" viewBox="0 0 1987.5 1079.999946" height="1440" preserveAspectRatio="xMidYMid meet" version="1.0"><defs><g/><clipPath id="26d55871af"><path d="M 9 110.992188 L 287 110.992188 L 287 278.953125 L 9 278.953125 Z M 9 110.992188 " clip-rule="nonzero"/></clipPath><clipPath id="a4b43e801d"><path d="M 305 110.992188 L 480 110.992188 L 480 278.953125 L 305 278.953125 Z M 305 110.992188 " clip-rule="nonzero"/></clipPath><clipPath id="4cdb3e0465"><path d="M 516 110.992188 L 700 110.992188 L 700 278.953125 L 516 278.953125 Z M 516 110.992188 " clip-rule="nonzero"/></clipPath><clipPath id="5792f7e85d"><path d="M 739 110.992188 L 923 110.992188 L 923 278.953125 L 739 278.953125 Z M 739 110.992188 " clip-rule="nonzero"/></clipPath><clipPath id="d57b4b71c6"><path d="M 948 228 L 999 228 L 999 278.953125 L 948 278.953125 Z M 948 228 " clip-rule="nonzero"/></clipPath><clipPath id="2963e041ad"><path d="M 1034 110.992188 L 1209 110.992188 L 1209 278.953125 L 1034 278.953125 Z M 1034 110.992188 " clip-rule="nonzero"/></clipPath><clipPath id="9209de719e"><path d="M 1218 110.992188 L 1438 110.992188 L 1438 278.953125 L 1218 278.953125 Z M 1218 110.992188 " clip-rule="nonzero"/></clipPath><clipPath id="004a07c1ff"><path d="M 1443 110.992188 L 1618 110.992188 L 1618 278.953125 L 1443 278.953125 Z M 1443 110.992188 " clip-rule="nonzero"/></clipPath><clipPath id="040e9793e4"><path d="M 1140.847656 0.199219 L 1584 0.199219 L 1584 336.882812 L 1140.847656 336.882812 Z M 1140.847656 0.199219 " clip-rule="nonzero"/></clipPath><clipPath id="e4b5cfeab9"><path d="M 0.878906 0.199219 L 443.316406 0.199219 L 443.316406 318 L 0.878906 318 Z M 0.878906 0.199219 " clip-rule="nonzero"/></clipPath><clipPath id="efedba95f5"><path d="M 234 153 L 339 153 L 339 336.609375 L 234 336.609375 Z M 234 153 " clip-rule="nonzero"/></clipPath><clipPath id="d0d0db7bd2"><rect x="0" width="444" y="0" height="337"/></clipPath><clipPath id="a6f8ac534c"><rect x="0" width="1627" y="0" height="338"/></clipPath></defs><g transform="matrix(1, 0, 0, 1, 180, 380)"><g clip-path="url(#a6f8ac534c)"><g clip-path="url(#26d55871af)"><path fill="#ffffff" d="M 74.289062 278.953125 L 9.453125 110.992188 L 49.933594 110.992188 L 92.609375 223.648438 L 137.371094 110.992188 L 164.777344 110.992188 L 210.320312 223.648438 L 251.136719 110.992188 L 286.179688 110.992188 L 221.195312 278.953125 L 194.757812 278.953125 L 148.394531 162.808594 L 101.398438 278.953125 Z M 74.289062 278.953125 " fill-opacity="1" fill-rule="nonzero"/></g><g clip-path="url(#a4b43e801d)"><path fill="#ffffff" d="M 305.878906 278.953125 L 305.878906 110.992188 L 478.257812 110.992188 L 478.257812 139.59375 L 345.089844 139.59375 L 345.089844 177.105469 L 422.84375 177.105469 L 422.84375 205.707031 L 345.089844 205.707031 L 345.089844 247.34375 L 479.859375 247.34375 L 479.859375 278.953125 Z M 305.878906 278.953125 " fill-opacity="1" fill-rule="nonzero"/></g><g clip-path="url(#4cdb3e0465)"><path fill="#ffffff" d="M 516.277344 278.953125 L 516.277344 110.992188 L 660.617188 110.992188 C 673.875 110.992188 683.519531 113.59375 689.441406 118.792969 C 695.398438 123.992188 698.378906 132.238281 698.378906 143.566406 L 698.378906 164.070312 C 698.378906 172.128906 695.882812 178.554688 690.894531 183.382812 C 685.902344 188.210938 678.714844 191.183594 669.367188 192.371094 C 679.011719 193.636719 686.5 197.089844 691.75 202.699219 C 697 208.308594 699.644531 215.625 699.644531 224.613281 L 699.644531 246.042969 C 699.644531 257.1875 695.546875 265.433594 687.390625 270.816406 C 679.199219 276.203125 666.800781 278.914062 650.117188 278.914062 L 516.316406 278.914062 Z M 644.195312 138.328125 L 554.820312 138.328125 L 554.820312 178.371094 L 644.195312 178.371094 C 651.007812 178.371094 655.703125 177.476562 658.308594 175.65625 C 660.914062 173.875 662.21875 170.71875 662.21875 166.296875 L 662.21875 150.402344 C 662.21875 146.054688 660.914062 142.972656 658.308594 141.117188 C 655.703125 139.257812 651.007812 138.328125 644.195312 138.328125 Z M 644.195312 206.003906 L 554.820312 206.003906 L 554.820312 248.753906 L 644.195312 248.753906 C 651.644531 248.753906 656.632812 247.640625 659.238281 245.414062 C 661.847656 243.183594 663.148438 239.285156 663.148438 233.636719 L 663.148438 220.933594 C 663.148438 215.328125 661.847656 211.425781 659.238281 209.234375 C 656.632812 207.082031 651.605469 205.964844 644.195312 205.964844 Z M 644.195312 206.003906 " fill-opacity="1" fill-rule="nonzero"/></g><g clip-path="url(#5792f7e85d)"><path fill="#ffffff" d="M 739.414062 278.953125 L 739.414062 110.992188 L 883.753906 110.992188 C 897.046875 110.992188 906.65625 113.59375 912.578125 118.792969 C 918.535156 123.992188 921.515625 132.238281 921.515625 143.566406 L 921.515625 164.070312 C 921.515625 172.128906 919.019531 178.554688 914.03125 183.382812 C 909.039062 188.210938 901.851562 191.183594 892.503906 192.371094 C 902.148438 193.636719 909.636719 197.089844 914.886719 202.699219 C 920.136719 208.308594 922.78125 215.625 922.78125 224.613281 L 922.78125 246.042969 C 922.78125 257.1875 918.683594 265.433594 910.527344 270.816406 C 902.335938 276.203125 889.9375 278.914062 873.253906 278.914062 L 739.453125 278.914062 Z M 867.332031 138.328125 L 777.957031 138.328125 L 777.957031 178.371094 L 867.332031 178.371094 C 874.144531 178.371094 878.839844 177.476562 881.445312 175.65625 C 884.050781 173.875 885.355469 170.71875 885.355469 166.296875 L 885.355469 150.402344 C 885.355469 146.054688 884.050781 142.972656 881.445312 141.117188 C 878.839844 139.257812 874.144531 138.328125 867.332031 138.328125 Z M 867.332031 206.003906 L 777.957031 206.003906 L 777.957031 248.753906 L 867.332031 248.753906 C 874.78125 248.753906 879.769531 247.640625 882.375 245.414062 C 884.984375 243.183594 886.285156 239.285156 886.285156 233.636719 L 886.285156 220.933594 C 886.285156 215.328125 884.984375 211.425781 882.375 209.234375 C 879.769531 207.082031 874.742188 205.964844 867.332031 205.964844 Z M 867.332031 206.003906 " fill-opacity="1" fill-rule="nonzero"/></g><g clip-path="url(#d57b4b71c6)"><path fill="#ffffff" d="M 985.191406 228.585938 L 991.078125 228.585938 C 993.945312 228.585938 995.957031 229.402344 997.148438 231.039062 C 998.300781 232.671875 998.898438 235.828125 998.898438 240.507812 L 998.898438 266.878906 C 998.898438 271.96875 998.265625 275.238281 996.996094 276.722656 C 995.730469 278.210938 991.785156 278.953125 985.191406 278.953125 L 956.035156 278.953125 C 953.167969 278.953125 951.15625 278.097656 949.964844 276.425781 C 948.808594 274.71875 948.214844 271.5625 948.214844 266.878906 L 948.214844 240.507812 C 948.214844 235.53125 948.847656 232.300781 950.113281 230.816406 C 951.378906 229.328125 955.328125 228.585938 961.917969 228.585938 Z M 985.191406 228.585938 " fill-opacity="1" fill-rule="nonzero"/></g><g clip-path="url(#2963e041ad)"><path fill="#ffffff" d="M 1034.683594 278.953125 L 1034.683594 110.992188 L 1207.0625 110.992188 L 1207.0625 139.59375 L 1073.898438 139.59375 L 1073.898438 177.105469 L 1151.652344 177.105469 L 1151.652344 205.707031 L 1073.898438 205.707031 L 1073.898438 247.34375 L 1208.664062 247.34375 L 1208.664062 278.953125 Z M 1034.683594 278.953125 " fill-opacity="1" fill-rule="nonzero"/></g><g clip-path="url(#9209de719e)"><path fill="#ffffff" d="M 1219.425781 278.953125 L 1299.230469 192.667969 L 1218.011719 110.992188 L 1269.960938 110.992188 L 1323.808594 168.042969 L 1374.9375 110.992188 L 1420.035156 110.992188 L 1346.597656 188.210938 L 1437.386719 278.953125 L 1384.171875 278.953125 L 1322.503906 213.804688 L 1265.640625 278.953125 Z M 1219.425781 278.953125 " fill-opacity="1" fill-rule="nonzero"/></g><g clip-path="url(#004a07c1ff)"><path fill="#ffffff" d="M 1443.382812 278.953125 L 1443.382812 110.992188 L 1615.761719 110.992188 L 1615.761719 139.59375 L 1482.597656 139.59375 L 1482.597656 177.105469 L 1560.351562 177.105469 L 1560.351562 205.707031 L 1482.597656 205.707031 L 1482.597656 247.34375 L 1617.363281 247.34375 L 1617.363281 278.953125 Z M 1443.382812 278.953125 " fill-opacity="1" fill-rule="nonzero"/></g><g clip-path="url(#040e9793e4)"><g transform="matrix(1, 0, 0, 1, 1140, 0.000000000000113687)"><g clip-path="url(#d0d0db7bd2)"><g clip-path="url(#e4b5cfeab9)"><path fill="#fdb4b9" d="M 284.933594 27.625 C 317.910156 14.574219 409.769531 -16.894531 436.945312 12.457031 C 448.441406 25.46875 441.597656 44.320312 434.109375 57.554688 C 422.8125 77.195312 407.082031 93.820312 390.898438 109.351562 C 369.191406 129.828125 345.726562 148.230469 321.523438 165.613281 C 269.378906 202.882812 213.566406 234.941406 155.722656 262.472656 C 106.179688 285.515625 54.933594 306.234375 1.296875 317.457031 C 1.128906 317.488281 0.964844 317.378906 0.929688 317.210938 C 0.898438 317.042969 1.003906 316.878906 1.171875 316.84375 C 30.128906 310.472656 58.265625 300.847656 85.871094 290.132812 C 109.070312 280.988281 132.050781 270.71875 154.449219 259.820312 C 157.753906 258.171875 166.054688 254.042969 169.363281 252.390625 C 173.917969 250.03125 179.628906 247.109375 184.171875 244.746094 C 187.425781 243 195.601562 238.636719 198.863281 236.886719 C 203.316406 234.417969 208.984375 231.28125 213.4375 228.8125 C 262.5 201.035156 310.0625 170.230469 353.609375 134.363281 C 376.1875 115.519531 398.019531 95.484375 416.242188 72.355469 C 437.617188 44.929688 453.9375 9.578125 404 5.808594 C 378.253906 4.3125 352.75 9.734375 327.816406 15.8125 C 313.46875 19.425781 299.269531 23.683594 285.144531 28.21875 C 284.980469 28.273438 284.804688 28.183594 284.75 28.019531 C 284.695312 27.855469 284.78125 27.6875 284.933594 27.625 Z M 284.933594 27.625 " fill-opacity="1" fill-rule="nonzero"/></g><path fill="#fdb4b9" d="M 265.636719 191.183594 L 265.636719 191.523438 C 227.816406 193.789062 207.597656 195.820312 197.128906 214.164062 C 186.636719 232.550781 185.472656 268.046875 184.179688 334.417969 L 183.792969 334.417969 C 182.496094 268.046875 181.335938 232.550781 170.839844 214.164062 C 160.378906 195.820312 140.152344 193.789062 102.332031 191.523438 L 102.332031 191.183594 C 140.152344 188.925781 160.378906 186.890625 170.839844 168.550781 C 181.335938 150.160156 182.5 114.664062 183.792969 48.289062 L 184.179688 48.289062 C 185.472656 114.664062 186.636719 150.160156 197.128906 168.550781 C 207.597656 186.890625 227.816406 188.925781 265.636719 191.183594 Z M 265.636719 191.183594 " fill-opacity="1" fill-rule="nonzero"/><g clip-path="url(#efedba95f5)"><path fill="#fdb4b9" d="M 338.890625 245.328125 L 338.890625 245.546875 C 314.714844 246.992188 301.792969 248.292969 295.101562 260.015625 C 288.394531 271.769531 287.652344 294.457031 286.824219 336.882812 L 286.578125 336.882812 C 285.75 294.457031 285.007812 271.769531 278.296875 260.015625 C 271.609375 248.292969 258.683594 246.992188 234.507812 245.546875 L 234.507812 245.328125 C 258.683594 243.882812 271.609375 242.582031 278.296875 230.859375 C 285.007812 219.101562 285.75 196.417969 286.578125 153.988281 L 286.824219 153.988281 C 287.648438 196.417969 288.394531 219.101562 295.101562 230.859375 C 301.792969 242.582031 314.714844 243.882812 338.890625 245.328125 Z M 338.890625 245.328125 " fill-opacity="1" fill-rule="nonzero"/></g><path fill="#fdb4b9" d="M 291.894531 34.273438 L 291.894531 34.320312 C 284.226562 34.628906 280.128906 34.910156 278.007812 37.417969 C 275.882812 39.933594 275.644531 44.785156 275.382812 53.863281 L 275.304688 53.863281 C 275.042969 44.785156 274.808594 39.933594 272.679688 37.417969 C 270.558594 34.910156 266.460938 34.632812 258.796875 34.320312 L 258.796875 34.277344 C 266.460938 33.96875 270.558594 33.6875 272.679688 31.179688 C 274.808594 28.664062 275.042969 23.8125 275.304688 14.734375 L 275.382812 14.734375 C 275.644531 23.8125 275.882812 28.664062 278.007812 31.179688 C 280.128906 33.6875 284.226562 33.964844 291.894531 34.273438 Z M 291.894531 34.273438 " fill-opacity="1" fill-rule="nonzero"/></g></g></g></g></g><g fill="#ffffff" fill-opacity="1"><g transform="translate(185.915164, 444.87081)"><g><path d="M 29.875 0 L 15.1875 0 L 15.1875 -26.359375 L 1.46875 -26.359375 L 1.46875 -35.015625 L 43.59375 -35.015625 L 43.59375 -26.359375 L 29.875 -26.359375 Z M 29.875 0 "/></g></g></g><g fill="#ffffff" fill-opacity="1"><g transform="translate(230.965147, 444.87081)"><g><path d="M 46.078125 0 L 3.90625 0 L 3.90625 -35.015625 L 44.15625 -35.015625 L 44.15625 -26.359375 L 18.59375 -26.359375 L 18.59375 -20.875 L 40.203125 -20.875 L 40.203125 -14.125 L 18.59375 -14.125 L 18.59375 -8.671875 L 46.078125 -8.671875 Z M 46.078125 0 "/></g></g></g><g fill="#ffffff" fill-opacity="1"><g transform="translate(278.99243, 444.87081)"><g><path d="M 58.8125 0 L 43.9375 0 L 40.640625 -5.734375 L 18.546875 -5.734375 L 15.25 0 L 0.359375 0 L 22.765625 -35 L 36.421875 -35 Z M 35.6875 -14.40625 L 29.609375 -25.015625 L 23.5 -14.40625 Z M 35.6875 -14.40625 "/></g></g></g><g fill="#ffffff" fill-opacity="1"><g transform="translate(338.172391, 444.87081)"><g><path d="M 70.484375 0 L 55.796875 0 L 55.796875 -22.328125 L 42.65625 0 L 31.703125 0 L 18.59375 -22.328125 L 18.59375 0 L 3.90625 0 L 3.90625 -35.015625 L 21.359375 -35.015625 L 37.203125 -10 L 53.015625 -35.015625 L 70.484375 -35.015625 Z M 70.484375 0 "/></g></g></g><g fill="#ffffff" fill-opacity="1"><g transform="translate(412.556121, 444.87081)"><g/></g></g><g fill="#ffffff" fill-opacity="1"><g transform="translate(424.953408, 444.87081)"><g><path d="M 70.484375 0 L 55.796875 0 L 55.796875 -22.328125 L 42.65625 0 L 31.703125 0 L 18.59375 -22.328125 L 18.59375 0 L 3.90625 0 L 3.90625 -35.015625 L 21.359375 -35.015625 L 37.203125 -10 L 53.015625 -35.015625 L 70.484375 -35.015625 Z M 70.484375 0 "/></g></g></g><g fill="#ffffff" fill-opacity="1"><g transform="translate(499.337127, 444.87081)"><g><path d="M 58.8125 0 L 43.9375 0 L 40.640625 -5.734375 L 18.546875 -5.734375 L 15.25 0 L 0.359375 0 L 22.765625 -35 L 36.421875 -35 Z M 35.6875 -14.40625 L 29.609375 -25.015625 L 23.5 -14.40625 Z M 35.6875 -14.40625 "/></g></g></g><g fill="#ffffff" fill-opacity="1"><g transform="translate(558.517076, 444.87081)"><g><path d="M 55.859375 0 L 38.390625 0 L 18.59375 -23.703125 L 18.59375 0 L 3.90625 0 L 3.90625 -35.015625 L 21.375 -35.015625 L 41.171875 -11.453125 L 41.171875 -35.015625 L 55.859375 -35.015625 Z M 55.859375 0 "/></g></g></g><g fill="#ffffff" fill-opacity="1"><g transform="translate(618.282724, 444.87081)"><g><path d="M 58.8125 0 L 43.9375 0 L 40.640625 -5.734375 L 18.546875 -5.734375 L 15.25 0 L 0.359375 0 L 22.765625 -35 L 36.421875 -35 Z M 35.6875 -14.40625 L 29.609375 -25.015625 L 23.5 -14.40625 Z M 35.6875 -14.40625 "/></g></g></g><g fill="#ffffff" fill-opacity="1"><g transform="translate(673.557833, 444.87081)"><g><path d="M 26.484375 0.75 C 17.828125 0.75 11.457031 -1.03125 7.375 -4.59375 C 3.757812 -7.75 1.953125 -12.039062 1.953125 -17.46875 C 1.953125 -22.925781 3.757812 -27.234375 7.375 -30.390625 C 11.457031 -33.953125 17.828125 -35.734375 26.484375 -35.734375 C 31.410156 -35.734375 35.507812 -35.175781 38.78125 -34.0625 C 42.050781 -32.957031 44.617188 -31.445312 46.484375 -29.53125 C 48.347656 -27.625 49.617188 -25.425781 50.296875 -22.9375 L 34.578125 -22.9375 C 32.941406 -25.195312 30.242188 -26.328125 26.484375 -26.328125 C 22.929688 -26.328125 20.316406 -25.3125 18.640625 -23.28125 C 17.304688 -21.632812 16.640625 -19.695312 16.640625 -17.46875 C 16.640625 -15.238281 17.304688 -13.3125 18.640625 -11.6875 C 20.316406 -9.65625 22.929688 -8.640625 26.484375 -8.640625 C 29.347656 -8.640625 31.5 -8.882812 32.9375 -9.375 C 34.375 -9.875 35.425781 -10.523438 36.09375 -11.328125 L 30.359375 -11.328125 L 30.359375 -17.46875 L 50.296875 -17.46875 L 50.296875 0.03125 L 44.203125 0.03125 L 42.953125 -3.375 C 39.066406 -0.625 33.578125 0.75 26.484375 0.75 Z M 26.484375 0.75 "/></g></g></g><g fill="#ffffff" fill-opacity="1"><g transform="translate(726.783179, 444.87081)"><g><path d="M 70.484375 0 L 55.796875 0 L 55.796875 -22.328125 L 42.65625 0 L 31.703125 0 L 18.59375 -22.328125 L 18.59375 0 L 3.90625 0 L 3.90625 -35.015625 L 21.359375 -35.015625 L 37.203125 -10 L 53.015625 -35.015625 L 70.484375 -35.015625 Z M 70.484375 0 "/></g></g></g><g fill="#ffffff" fill-opacity="1"><g transform="translate(801.166899, 444.87081)"><g><path d="M 46.078125 0 L 3.90625 0 L 3.90625 -35.015625 L 44.15625 -35.015625 L 44.15625 -26.359375 L 18.59375 -26.359375 L 18.59375 -20.875 L 40.203125 -20.875 L 40.203125 -14.125 L 18.59375 -14.125 L 18.59375 -8.671875 L 46.078125 -8.671875 Z M 46.078125 0 "/></g></g></g><g fill="#ffffff" fill-opacity="1"><g transform="translate(849.194182, 444.87081)"><g><path d="M 55.859375 0 L 38.390625 0 L 18.59375 -23.703125 L 18.59375 0 L 3.90625 0 L 3.90625 -35.015625 L 21.375 -35.015625 L 41.171875 -11.453125 L 41.171875 -35.015625 L 55.859375 -35.015625 Z M 55.859375 0 "/></g></g></g><g fill="#ffffff" fill-opacity="1"><g transform="translate(908.95983, 444.87081)"><g><path d="M 29.875 0 L 15.1875 0 L 15.1875 -26.359375 L 1.46875 -26.359375 L 1.46875 -35.015625 L 43.59375 -35.015625 L 43.59375 -26.359375 L 29.875 -26.359375 Z M 29.875 0 "/></g></g></g></svg>